# Blender v2.74 (sub 0) OBJ File: 'dragonkick_can.blend'
# www.blender.org
mtllib dragonkick_can.mtl
o dragon_kick_can.gr2
v 0.105417 0.666698 0.042698
v 0.115584 0.666698 -0.000718
v 0.044018 0.666698 0.104097
v 0.081907 0.666698 0.080587
v 0.000603 0.666698 0.114264
v -0.135104 0.596669 -0.056929
v -0.055609 0.596669 -0.136424
v 0.000603 0.666698 -0.115699
v 0.136309 0.596669 -0.056929
v 0.056814 0.128764 0.134989
v -0.042964 0.074500 -0.105896
v 0.000603 0.128763 -0.149588
v 0.115984 0.074500 -0.000718
v 0.136309 0.596669 0.055494
v 0.149473 0.596669 -0.000718
v 0.149473 0.128764 -0.000718
v 0.056814 0.596669 0.134989
v 0.000603 0.128764 0.148153
v -0.104664 0.128764 0.104550
v -0.104664 0.596669 0.104550
v -0.135104 0.128764 -0.056929
v -0.148267 0.128764 -0.000718
v 0.136309 0.128764 -0.056929
v 0.105870 0.596669 0.104550
v -0.080702 0.666698 0.080587
v -0.135104 0.596669 0.055494
v -0.080702 0.666698 -0.082022
v 0.000603 0.596669 -0.149588
v -0.042813 0.666698 -0.105532
v 0.056814 0.596669 -0.136424
v 0.105870 0.596669 -0.105985
v 0.081907 0.666698 -0.082022
v 0.044018 0.666698 -0.105532
v 0.136309 0.128764 0.055494
v 0.082189 0.074500 0.080869
v 0.000603 0.074500 0.114663
v -0.135104 0.128764 0.055494
v -0.104664 0.128763 -0.105985
v 0.044169 0.074500 -0.105896
v 0.105870 0.128763 -0.105985
v 0.105870 0.128764 0.104550
v 0.000603 0.596669 0.148153
v -0.055609 0.128764 0.134989
v -0.055609 0.596669 0.134989
v -0.148267 0.596669 -0.000718
v -0.104664 0.596669 -0.105985
v -0.055609 0.128763 -0.136424
v 0.056814 0.128763 -0.136424
v 0.000603 0.074500 -0.000718
v 0.105781 0.074500 0.042849
v 0.044169 0.074500 0.104461
v 0.105781 0.074500 -0.044284
v -0.042964 0.074500 0.104461
v 0.082189 0.074500 -0.082304
v 0.000603 0.074500 -0.116098
v -0.104576 0.074500 0.042849
v -0.080984 0.074500 0.080869
v -0.114778 0.074500 -0.000718
v -0.080984 0.074500 -0.082304
v -0.104576 0.074500 -0.044284
v 0.105417 0.666698 -0.044133
v 0.000603 0.666698 -0.000718
v -0.042813 0.666698 0.104097
v -0.104212 0.666698 0.042698
v -0.104211 0.666698 -0.044133
v -0.114379 0.666698 -0.000718
vt 0.930292 0.902043
vt 0.863379 0.970454
vt 0.868302 0.899070
vt 0.689615 0.900166
vt 0.748355 0.971954
vt 0.689422 0.972212
vt 0.748731 0.900042
vt 0.571427 0.900345
vt 0.630489 0.972470
vt 0.571423 0.972573
vt 0.630498 0.900291
vt 0.453285 0.900345
vt 0.512356 0.972675
vt 0.453290 0.972573
vt 0.512356 0.900399
vt 0.335098 0.900167
vt 0.394224 0.972470
vt 0.335291 0.972212
vt 0.394215 0.900291
vt 0.216195 0.899556
vt 0.276357 0.971954
vt 0.218845 0.971204
vt 0.275981 0.900042
vt 0.094420 0.902044
vt 0.161333 0.970454
vt 0.108833 0.975080
vt 0.156410 0.899070
vt 0.968379 0.979705
vt 0.915879 0.975079
vt 0.992281 0.905017
vt 0.808517 0.899556
vt 0.805867 0.971204
vt 0.689699 0.478200
vt 0.630569 0.418184
vt 0.689586 0.418438
vt 0.630541 0.478073
vt 0.571449 0.478002
vt 0.512356 0.417941
vt 0.571463 0.418063
vt 0.512356 0.477932
vt 0.453264 0.478002
vt 0.394143 0.418184
vt 0.453250 0.418063
vt 0.394171 0.478073
vt 0.335014 0.478200
vt 0.276109 0.418692
vt 0.335126 0.418438
vt 0.275856 0.478327
vt 0.216110 0.478839
vt 0.160260 0.420087
vt 0.218184 0.419389
vt 0.156364 0.479351
vt 0.094402 0.476846
vt 0.054260 0.412014
vt 0.107260 0.416051
vt 0.032441 0.474342
vt 0.930310 0.476846
vt 0.864452 0.420087
vt 0.917452 0.416051
vt 0.868348 0.479350
vt 0.808602 0.478838
vt 0.748604 0.418692
vt 0.806528 0.419389
vt 0.748856 0.478326
vt 0.992271 0.474341
vt 0.056333 0.979705
vt 0.032431 0.905017
vt 0.970452 0.412014
vt 0.724663 0.206408
vt 0.921055 0.209836
vt 0.907226 0.285788
vt 0.909885 0.133446
vt 0.861109 0.347703
vt 0.865957 0.069960
vt 0.797624 0.391630
vt 0.804043 0.023844
vt 0.721236 0.402801
vt 0.728090 0.010014
vt 0.645283 0.388971
vt 0.651702 0.021185
vt 0.583369 0.342855
vt 0.588216 0.065113
vt 0.539441 0.279369
vt 0.542100 0.127027
vt 0.528270 0.202980
vt 0.220436 0.208013
vt 0.416173 0.209499
vt 0.403139 0.285321
vt 0.404291 0.133487
vt 0.357792 0.347471
vt 0.359894 0.070656
vt 0.294961 0.391868
vt 0.297743 0.025310
vt 0.218950 0.403750
vt 0.221922 0.012275
vt 0.143128 0.390715
vt 0.145910 0.024157
vt 0.080978 0.345369
vt 0.083079 0.068555
vt 0.036580 0.282538
vt 0.037733 0.130705
vt 0.024698 0.206527
vn 0.373600 0.216100 -0.902000
vn 0.411900 0.812800 -0.411900
vn 0.690300 0.216700 -0.690300
vn 0.902000 0.216100 0.373600
vn 0.582500 0.812800 0.000000
vn 0.527200 0.821200 0.218400
vn 0.976200 0.216700 0.000000
vn 0.373600 0.216100 0.902000
vn 0.411900 0.812800 0.411900
vn 0.218400 0.821200 0.527200
vn 0.690300 0.216700 0.690300
vn -0.373600 0.216100 0.902000
vn 0.000000 0.812800 0.582500
vn -0.218400 0.821200 0.527200
vn 0.000000 0.216700 0.976200
vn -0.902000 0.216100 0.373600
vn -0.411900 0.812800 0.411900
vn -0.527200 0.821200 0.218400
vn -0.690300 0.216700 0.690300
vn -0.902000 0.216100 -0.373600
vn -0.582500 0.812800 0.000000
vn -0.527200 0.821200 -0.218400
vn -0.976200 0.216700 0.000000
vn -0.373600 0.216100 -0.902000
vn -0.411900 0.812800 -0.411900
vn -0.218400 0.821200 -0.527200
vn -0.690300 0.216700 -0.690300
vn 0.000000 0.812800 -0.582500
vn 0.218400 0.821200 -0.527200
vn 0.000000 0.216700 -0.976200
vn 0.902000 0.216100 -0.373600
vn 0.527200 0.821200 -0.218400
vn 0.891300 -0.263100 0.369200
vn 0.380300 -0.843000 0.380300
vn 0.486400 -0.850200 0.201500
vn 0.682200 -0.263100 0.682200
vn 0.369200 -0.263100 0.891300
vn 0.000000 -0.843000 0.537900
vn 0.201500 -0.850200 0.486400
vn 0.000000 -0.263100 0.964800
vn -0.369200 -0.263100 0.891300
vn -0.380300 -0.843000 0.380300
vn -0.201500 -0.850200 0.486400
vn -0.682200 -0.263100 0.682200
vn -0.891300 -0.263100 0.369200
vn -0.537900 -0.843000 0.000000
vn -0.486400 -0.850200 0.201500
vn -0.964800 -0.263100 0.000000
vn -0.891300 -0.263100 -0.369200
vn -0.380300 -0.843000 -0.380300
vn -0.486400 -0.850200 -0.201500
vn -0.682200 -0.263100 -0.682200
vn -0.369200 -0.263100 -0.891300
vn 0.000000 -0.843000 -0.537900
vn -0.201500 -0.850200 -0.486400
vn 0.000000 -0.263100 -0.964800
vn 0.369200 -0.263100 -0.891300
vn 0.380300 -0.843000 -0.380300
vn 0.201500 -0.850200 -0.486400
vn 0.682200 -0.263100 -0.682200
vn 0.891300 -0.263100 -0.369200
vn 0.537900 -0.843000 0.000000
vn 0.486400 -0.850200 -0.201500
vn 0.964800 -0.263100 0.000000
vn 0.000000 -1.000000 0.000000
vn 0.000000 1.000000 0.000000
usemtl Mesh_0
s 1
f 30/1/1 32/2/2 31/3/3
f 14/4/4 2/5/5 1/6/6
f 2/5/5 14/4/4 15/7/7
f 17/8/8 4/9/9 3/10/10
f 4/9/9 17/8/8 24/11/11
f 44/12/12 5/13/13 63/14/14
f 5/13/13 44/12/12 42/15/15
f 26/16/16 25/17/17 64/18/18
f 25/17/17 26/16/16 20/19/19
f 6/20/20 66/21/21 65/22/22
f 66/21/21 6/20/20 45/23/23
f 7/24/24 27/25/25 29/26/26
f 27/25/25 7/24/24 46/27/27
f 30/1/1 8/28/28 33/29/29
f 8/28/28 30/1/1 28/30/30
f 9/31/31 32/2/2 61/32/32
f 32/2/2 9/31/31 31/3/3
f 34/33/33 35/34/34 50/35/35
f 35/34/34 34/33/33 41/36/36
f 10/37/37 36/38/38 51/39/39
f 36/38/38 10/37/37 18/40/40
f 43/41/41 57/42/42 53/43/43
f 57/42/42 43/41/41 19/44/44
f 37/45/45 58/46/46 56/47/47
f 58/46/46 37/45/45 22/48/48
f 21/49/49 59/50/50 60/51/51
f 59/50/50 21/49/49 38/52/52
f 47/53/53 55/54/54 11/55/55
f 55/54/54 47/53/53 12/56/56
f 48/57/57 54/58/58 39/59/59
f 54/58/58 48/57/57 40/60/60
f 23/61/61 13/62/62 52/63/63
f 13/62/62 23/61/61 16/64/64
f 16/64/64 14/4/4 34/33/33
f 14/4/4 16/64/64 15/7/7
f 41/36/36 17/8/8 10/37/37
f 17/8/8 41/36/36 24/11/11
f 18/40/40 44/12/12 43/41/41
f 44/12/12 18/40/40 42/15/15
f 19/44/44 26/16/16 37/45/45
f 26/16/16 19/44/44 20/19/19
f 22/48/48 6/20/20 21/49/49
f 6/20/20 22/48/48 45/23/23
f 38/52/52 7/24/24 47/53/53
f 7/24/24 38/52/52 46/27/27
f 12/65/56 30/1/1 48/57/57
f 30/1/1 12/65/56 28/30/30
f 40/60/60 9/31/31 23/61/61
f 9/31/31 40/60/60 31/3/3
f 14/4/4 4/9/9 24/11/11
f 4/9/9 14/4/4 1/6/6
f 17/8/8 5/13/13 42/15/15
f 5/13/13 17/8/8 3/10/10
f 44/12/12 25/17/17 20/19/19
f 25/17/17 44/12/12 63/14/14
f 26/16/16 66/21/21 45/23/23
f 66/21/21 26/16/16 64/18/18
f 6/20/20 27/25/25 46/27/27
f 27/25/25 6/20/20 65/22/22
f 7/24/24 8/66/28 28/67/30
f 8/66/28 7/24/24 29/26/26
f 32/2/2 30/1/1 33/29/29
f 9/31/31 2/5/5 15/7/7
f 2/5/5 9/31/31 61/32/32
f 34/33/33 13/62/62 16/64/64
f 13/62/62 34/33/33 50/35/35
f 10/37/37 35/34/34 41/36/36
f 35/34/34 10/37/37 51/39/39
f 43/41/41 36/38/38 18/40/40
f 36/38/38 43/41/41 53/43/43
f 37/45/45 57/42/42 19/44/44
f 57/42/42 37/45/45 56/47/47
f 21/49/49 58/46/46 22/48/48
f 58/46/46 21/49/49 60/51/51
f 47/53/53 59/50/50 38/52/52
f 59/50/50 47/53/53 11/55/55
f 48/57/57 55/68/54 12/65/56
f 55/68/54 48/57/57 39/59/59
f 23/61/61 54/58/58 40/60/60
f 54/58/58 23/61/61 52/63/63
f 34/33/33 24/11/11 41/36/36
f 24/11/11 34/33/33 14/4/4
f 10/37/37 42/15/15 18/40/40
f 42/15/15 10/37/37 17/8/8
f 43/41/41 20/19/19 19/44/44
f 20/19/19 43/41/41 44/12/12
f 37/45/45 45/23/23 22/48/48
f 45/23/23 37/45/45 26/16/16
f 21/49/49 46/27/27 38/52/52
f 46/27/27 21/49/49 6/20/20
f 47/53/53 28/67/30 12/56/56
f 28/67/30 47/53/53 7/24/24
f 48/57/57 31/3/3 40/60/60
f 31/3/3 48/57/57 30/1/1
f 23/61/61 15/7/7 16/64/64
f 15/7/7 23/61/61 9/31/31
f 49/69/65 50/70/35 35/71/34
f 50/70/35 49/69/65 13/72/62
f 51/73/39 49/69/65 35/71/34
f 49/69/65 52/74/63 13/72/62
f 49/69/65 51/73/39 36/75/38
f 52/74/63 49/69/65 54/76/58
f 53/77/43 49/69/65 36/75/38
f 49/69/65 39/78/59 54/76/58
f 49/69/65 53/77/43 57/79/42
f 39/78/59 49/69/65 55/80/54
f 56/81/47 49/69/65 57/79/42
f 49/69/65 11/82/55 55/80/54
f 49/69/65 56/81/47 58/83/46
f 11/82/55 49/69/65 59/84/50
f 60/85/51 49/69/65 58/83/46
f 49/69/65 60/85/51 59/84/50
f 62/86/66 1/87/6 2/88/5
f 1/87/6 62/86/66 4/89/9
f 61/90/32 62/86/66 2/88/5
f 62/86/66 3/91/10 4/89/9
f 62/86/66 61/90/32 32/92/2
f 3/91/10 62/86/66 5/93/13
f 33/94/29 62/86/66 32/92/2
f 62/86/66 63/95/14 5/93/13
f 62/86/66 33/94/29 8/96/28
f 63/95/14 62/86/66 25/97/17
f 29/98/26 62/86/66 8/96/28
f 62/86/66 64/99/18 25/97/17
f 62/86/66 29/98/26 27/100/25
f 64/99/18 62/86/66 66/101/21
f 65/102/22 62/86/66 27/100/25
f 62/86/66 65/102/22 66/101/21
