# 3ds Max Wavefront OBJ Exporter v0.97b - (c)2007 guruware
# File Created: 03.08.2016 18:08:36

mtllib Locker.mtl

#
# object OBJ_LOCKER_CLOTHING
#

v  -4.0000 188.0000 -60.0000
v  -4.0000 4.0000 -60.0000
v  -4.0000 4.0000 -6.6339
v  -4.0000 188.0000 -6.6339
v  -3.2618 229.6192 -1.2664
v  -4.1556 229.6192 -0.8962
v  -2.3681 229.6192 -0.8962
v  -4.5258 229.6192 -0.0024
v  -4.1556 229.6192 0.8913
v  -2.3681 229.6192 0.8913
v  -1.9979 229.6192 -0.0024
v  -3.2618 229.6192 1.2615
v  -2.3681 217.6192 -0.8962
v  -1.9979 217.6192 -0.0024
v  -3.2618 217.6192 -1.2664
v  -2.3681 217.6192 0.8913
v  -3.2618 217.6192 1.2615
v  -4.5258 217.6192 -0.0024
v  -4.1556 217.6192 -0.8962
v  -4.1556 217.6192 0.8913
v  -60.0000 4.0000 -60.0000
v  -60.0000 188.0000 -6.6339
v  -60.0000 188.0000 -60.0000
v  -60.0000 4.0000 -6.6339
v  -64.0000 192.0000 -1.0000
v  -64.0000 192.0000 -64.0000
v  -64.0000 0.0000 -64.0000
v  -64.0000 0.0000 -1.0000
v  0.0000 192.0000 -1.0000
v  0.0000 192.0000 -64.0000
v  -4.0000 58.1422 -61.4064
v  -4.0000 58.1422 -5.4011
v  -60.0000 58.1422 -5.4011
v  -60.0000 58.1422 -61.4064
v  -4.0000 62.1422 -61.4064
v  -60.0000 62.1422 -61.4064
v  -60.0000 62.1422 -5.4011
v  -4.0000 62.1422 -5.4011
v  -4.0000 131.6275 -61.4064
v  -4.0000 131.6275 -5.4011
v  -60.0000 131.6275 -5.4011
v  -60.0000 131.6275 -61.4064
v  -4.0000 135.6275 -61.4064
v  -60.0000 135.6275 -61.4064
v  -60.0000 135.6275 -5.4011
v  -4.0000 135.6275 -5.4011
v  -4.0061 195.7861 0.7996
v  -4.0061 195.7861 -3.2004
v  -4.0061 253.7479 -3.2004
v  -4.0061 253.7479 0.7996
v  -60.0061 195.7861 0.7996
v  -60.0061 195.7861 -3.2004
v  -60.0061 253.7479 0.7996
v  -60.0061 253.7479 -3.2004
v  0.0000 0.0000 -64.0000
v  0.0000 0.0000 -1.0000
v  -19.2243 212.1198 0.7996
v  -20.9781 213.5675 0.7996
v  -19.2243 212.1198 1.9084
v  -18.6946 210.0124 0.7996
v  -18.6946 210.0124 2.6746
v  -20.8930 213.0763 0.8035
v  -43.1192 213.0763 0.8035
v  -45.3176 210.0124 2.6746
v  -45.3176 210.0124 0.7996
v  -44.7879 212.1198 0.7996
v  -44.7879 212.1198 1.9084
v  -43.0341 213.5675 0.7996
v  -43.9585 217.6826 3.4919
v  -20.0537 217.6826 3.4919
v  -20.5293 219.8127 2.7053
v  -43.4830 219.8127 2.7053
v  -43.1192 220.7465 0.8035
v  -20.8930 220.7465 0.8035
v  -18.6946 217.6826 2.6746
v  -19.2243 219.7900 1.9084
v  -20.9781 221.2377 0.7996
v  -43.0341 221.2377 0.7996
v  -44.7879 219.7900 1.9084
v  -45.3176 217.6826 2.6746
v  -6.0123 185.9877 -3.8759
v  -6.0123 185.9877 -6.6339
v  -6.0123 6.0123 -6.6339
v  -57.9877 185.9877 -3.8759
v  -57.9877 185.9877 -6.6339
v  -57.9877 6.0123 -6.6339
v  -6.0123 6.0123 -3.8759
v  -57.9877 6.0123 -3.8759
v  -60.0000 4.0000 -3.8759
v  -60.0000 188.0000 -3.8759
v  -4.0000 188.0000 -3.8759
v  -4.0000 4.0000 -1.0000
v  -4.0000 188.0000 -1.0000
v  -60.0000 188.0000 -1.0000
v  -60.0000 4.0000 -1.0000
v  -4.0000 4.0000 -3.8759
v  -60.0000 252.0329 -60.0000
v  -60.0000 252.0329 -6.6339
v  -60.0000 195.9177 -6.6339
v  -60.0000 195.9177 -60.0000
v  -4.0000 195.9177 -60.0000
v  -4.0000 252.0329 -60.0000
v  -4.0000 252.0329 -6.6339
v  -4.0000 195.9177 -6.6339
v  -64.0000 192.9177 -1.0000
v  0.0000 192.9177 -1.0000
v  -4.0000 195.9177 -1.0000
v  -60.0000 195.9177 -1.0000
v  -60.0000 252.0329 -1.0000
v  -4.0000 252.0329 -1.0000
v  0.0000 256.0329 -1.0000
v  -64.0000 256.0329 -1.0000
v  0.0000 256.0329 -64.0000
v  -64.0000 256.0329 -64.0000
v  0.0000 192.9177 -64.0000
v  -64.0000 192.9177 -64.0000
v  -19.2243 219.7900 0.7996
v  -18.6946 217.6826 0.7996
v  -45.3176 217.6826 0.7996
v  -44.7879 219.7900 0.7996
v  -19.2243 227.4602 0.7996
v  -20.9781 228.9079 0.7996
v  -19.2243 227.4602 1.9084
v  -18.6946 225.3528 0.7996
v  -18.6946 225.3528 2.6746
v  -20.8930 228.4167 0.8035
v  -43.1192 228.4167 0.8035
v  -45.3176 225.3528 2.6746
v  -45.3176 225.3528 0.7996
v  -44.7879 227.4602 0.7996
v  -44.7879 227.4602 1.9084
v  -43.0341 228.9079 0.7996
v  -20.5293 227.4829 2.7053
v  -43.4829 227.4829 2.7053
v  -43.9585 225.3528 3.4919
v  -20.0537 225.3528 3.4919
v  -6.0123 250.0206 -6.6339
v  -5.9798 197.9780 -6.5892
v  -5.9798 197.9780 -3.8312
v  -6.0123 250.0206 -3.8759
v  -4.0000 195.9177 -3.8759
v  -4.0000 252.0329 -3.8759
v  -20.5293 212.1425 2.7053
v  -20.0537 210.0124 3.4919
v  -43.9585 210.0124 3.4919
v  -43.4830 212.1425 2.7053
v  -19.2243 235.1304 0.7996
v  -20.9781 236.5781 0.7996
v  -19.2243 235.1304 1.9084
v  -18.6946 233.0229 0.7996
v  -18.6946 233.0229 2.6746
v  -20.8930 236.0869 0.8035
v  -43.1192 236.0869 0.8035
v  -45.3176 233.0230 2.6746
v  -45.3176 233.0230 0.7996
v  -44.7879 235.1304 0.7996
v  -44.7879 235.1304 1.9084
v  -43.0341 236.5781 0.7996
v  -19.2243 242.8006 0.7996
v  -20.9781 244.2483 0.7996
v  -19.2243 242.8006 1.9084
v  -18.6946 240.6932 0.7996
v  -18.6946 240.6932 2.6746
v  -20.8930 243.7571 0.8035
v  -43.1192 243.7571 0.8035
v  -45.3176 240.6932 2.6746
v  -45.3176 240.6932 0.7996
v  -44.7879 242.8006 0.7996
v  -44.7879 242.8006 1.9084
v  -43.0341 244.2483 0.7996
v  -63.0000 191.9177 -2.0000
v  -63.0000 191.9177 -63.0000
v  -1.0000 191.9177 -63.0000
v  -1.0000 191.9177 -2.0000
v  -60.0000 252.0329 -3.8759
v  -57.9877 250.0206 -3.8759
v  -57.9877 250.0206 -6.6339
v  -60.0000 195.9177 -3.8759
v  -57.9553 197.9780 -3.8312
v  -57.9553 197.9780 -6.5892
v  -20.5293 235.1531 2.7053
v  -43.4830 235.1531 2.7053
v  -43.9585 233.0230 3.4919
v  -20.0537 233.0229 3.4919
v  -20.5293 242.8233 2.7053
v  -20.0537 240.6932 3.4919
v  -43.9585 240.6932 3.4919
v  -43.4829 242.8233 2.7053
# 188 vertices

vn -1.0000 0.0000 -0.0000
vn 0.0000 0.7071 -0.7071
vn -0.4912 0.5815 -0.6485
vn 0.5000 0.7071 -0.5000
vn -0.7071 0.7071 0.0000
vn -0.3162 0.8944 0.3162
vn 0.3162 0.8944 0.3162
vn 0.7071 0.7071 0.0000
vn 0.0000 0.7071 0.7071
vn 0.5000 -0.7071 -0.5000
vn 0.7071 -0.7071 0.0000
vn -0.2026 -0.3465 -0.9159
vn 0.5000 -0.7071 0.5000
vn 0.0000 -0.7071 0.7071
vn -0.7071 -0.7071 0.0000
vn -0.6219 -0.4760 -0.6219
vn -0.5000 -0.7071 0.5000
vn 0.7071 0.0000 0.7071
vn 0.0000 0.0000 1.0000
vn 0.0000 -0.7071 -0.7071
vn 0.5774 -0.5774 -0.5774
vn 0.5774 -0.5774 0.5774
vn 0.7071 0.0000 -0.7071
vn -0.5774 0.5774 0.5774
vn -0.7071 0.7071 -0.0000
vn -0.7071 0.0000 0.7071
vn 0.0000 1.0000 -0.0000
vn 0.0000 -1.0000 -0.0000
vn 0.7071 -0.7071 -0.0000
vn 0.7071 0.7071 -0.0000
vn 0.5774 0.5774 0.5774
vn -0.7071 -0.7071 -0.0000
vn -0.5000 0.7071 0.5000
vn 0.0000 0.0000 -1.0000
vn 1.0000 0.0000 -0.0000
vn 0.8454 0.5341 -0.0000
vn 0.3951 0.8617 0.3184
vn 0.7248 0.5749 0.3798
vn 0.4224 -0.9064 -0.0000
vn 0.5801 -0.7183 0.3840
vn -0.5183 -0.7360 -0.4355
vn 0.5183 -0.7360 -0.4355
vn -0.5834 -0.7196 0.3766
vn -0.4224 -0.9064 -0.0000
vn -0.8454 0.5341 -0.0000
vn -0.7250 0.5758 0.3778
vn -0.3951 0.8617 0.3184
vn -0.2078 -0.7686 0.6051
vn 0.2143 -0.7678 0.6038
vn 0.2094 0.5973 0.7742
vn -0.2079 0.5983 0.7739
vn -0.3015 -0.3015 0.9045
vn -0.3015 -0.3015 -0.9045
vn -0.3015 0.3015 -0.9045
vn 0.3015 -0.3015 0.9045
vn 0.3015 -0.3015 -0.9045
vn 0.3015 0.3015 -0.9045
vn -0.3015 0.3015 0.9045
vn 0.3015 0.3015 0.9045
vn 0.5774 0.5774 0.5773
vn 0.5774 -0.5774 0.5773
vn -0.8870 -0.3265 0.3265
vn -0.7082 0.2233 0.6698
vn -0.7071 0.5000 0.5000
vn 0.4082 -0.4082 -0.8165
vn 0.4550 0.0093 -0.8905
vn 0.0000 -0.4472 -0.8944
vn -0.4472 0.0000 0.8944
vn -0.4082 0.4082 0.8165
vn 0.4082 0.4082 0.8165
vn 0.4082 -0.4082 0.8165
vn -0.4082 -0.4082 0.8165
vn 0.0000 0.4472 0.8944
vn -0.2079 -0.7686 0.6051
vn -0.3016 -0.3017 -0.9045
vn -0.0112 0.0104 -0.9999
vn -0.3086 0.3108 -0.8990
vn -0.2909 0.2954 0.9100
vn -0.3016 -0.3017 0.9045
vn -0.5782 0.5724 0.5814
vn -0.5774 -0.5774 0.5773
vn 0.4223 -0.9064 -0.0000
vn 0.5801 -0.7184 0.3840
vn -0.4082 -0.8165 0.4082
vn -0.4082 -0.8165 -0.4082
vn 0.4082 -0.8165 -0.4082
vn 0.4082 -0.8165 0.4082
vn 0.3015 -0.3013 0.9046
vn 0.6584 -0.2365 -0.7145
vn 0.5758 0.5748 0.5814
vn 0.4621 0.2516 0.8504
vn 0.3098 0.3097 -0.8990
# 92 vertex normals

vt 0.8730 0.4414 0.4414
vt 0.8730 0.0098 0.0098
vt 0.9980 0.0098 0.0098
vt 0.9980 0.4414 0.4414
vt 0.6675 0.9190 0.9190
vt 0.6763 0.9155 0.9155
vt 0.6592 0.9155 0.9155
vt 0.6797 0.9070 0.9070
vt 0.6763 0.8986 0.8986
vt 0.6592 0.8986 0.8986
vt 0.6558 0.9070 0.9070
vt 0.6675 0.8951 0.8951
vt 0.7290 0.8529 0.8529
vt 0.7256 0.8444 0.8444
vt 0.7378 0.8563 0.8563
vt 0.7290 0.8358 0.8358
vt 0.7378 0.8324 0.8324
vt 0.7495 0.8444 0.8444
vt 0.7461 0.8529 0.8529
vt 0.7461 0.8358 0.8358
vt 0.7554 0.8562 0.8562
vt 0.7554 0.8951 0.8951
vt 0.7378 0.8951 0.8951
vt 0.7202 0.8562 0.8562
vt 0.7202 0.8951 0.8951
vt 0.7026 0.8562 0.8562
vt 0.7026 0.8951 0.8951
vt 0.6851 0.8562 0.8562
vt 0.6851 0.8951 0.8951
vt 0.6680 0.8562 0.8562
vt 0.6504 0.8562 0.8562
vt 0.6504 0.8951 0.8951
vt 0.6328 0.8562 0.8562
vt 0.6328 0.8951 0.8951
vt 0.6152 0.8562 0.8562
vt 0.6152 0.8951 0.8951
vt 0.7417 0.0093 0.0093
vt 0.8730 0.5662 0.5662
vt 0.7417 0.5662 0.5662
vt 0.7417 0.4409 0.4409
vt 0.6162 0.4409 0.4409
vt 0.6162 0.0093 0.0093
vt 0.0102 0.4551 0.4551
vt 0.1580 0.4551 0.4551
vt 0.1580 0.0049 0.0049
vt 0.0102 0.0049 0.0049
vt 0.1580 0.6030 0.6030
vt 0.3079 0.6030 0.6030
vt 0.3079 0.4551 0.4551
vt 0.1593 0.6943 0.6943
vt 0.1593 0.8308 0.8308
vt 0.2959 0.8308 0.8308
vt 0.2959 0.6943 0.6943
vt 0.1593 0.9776 0.9776
vt 0.2959 0.9776 0.9776
vt 0.2959 0.8412 0.8412
vt 0.1593 0.8412 0.8412
vt 0.0174 0.6943 0.6943
vt 0.0174 0.8308 0.8308
vt 0.1537 0.8308 0.8308
vt 0.1537 0.6943 0.6943
vt 0.0174 0.9776 0.9776
vt 0.1537 0.9776 0.9776
vt 0.1537 0.8412 0.8412
vt 0.0174 0.8412 0.8412
vt 0.3145 0.5520 0.5520
vt 0.3223 0.5522 0.5522
vt 0.3223 0.6882 0.6882
vt 0.3145 0.6880 0.6880
vt 0.3218 0.5439 0.5439
vt 0.4556 0.5439 0.5439
vt 0.4551 0.5522 0.5522
vt 0.4634 0.6882 0.6882
vt 0.4551 0.6882 0.6882
vt 0.4634 0.5520 0.5520
vt 0.5947 0.5520 0.5520
vt 0.5947 0.6882 0.6882
vt 0.4556 0.9904 0.9904
vt 0.3218 0.9904 0.9904
vt 0.3223 0.9838 0.9838
vt 0.4551 0.9838 0.9838
vt 0.0044 0.4634 0.4634
vt 0.0044 0.6111 0.6111
vt 0.1544 0.6108 0.6108
vt 0.1545 0.4634 0.4634
vt 0.3079 0.0049 0.0049
vt 0.4556 0.4551 0.4551
vt 0.4556 0.0049 0.0049
vt 0.6196 0.6636 0.6636
vt 0.6299 0.6714 0.6714
vt 0.6172 0.6550 0.6550
vt 0.6294 0.6404 0.6404
vt 0.7197 0.6404 0.6404
vt 0.7319 0.6550 0.6550
vt 0.7295 0.6636 0.6636
vt 0.7192 0.6714 0.6714
vt 0.7231 0.6863 0.6863
vt 0.6260 0.6863 0.6863
vt 0.6279 0.6948 0.6948
vt 0.7212 0.6948 0.6948
vt 0.7197 0.6716 0.6716
vt 0.6294 0.6716 0.6716
vt 0.6172 0.6863 0.6863
vt 0.6196 0.6948 0.6948
vt 0.6299 0.7024 0.7024
vt 0.7192 0.7024 0.7024
vt 0.7295 0.6948 0.6948
vt 0.7319 0.6863 0.6863
vt 0.4761 0.4336 0.4336
vt 0.4858 0.4238 0.4238
vt 0.4858 0.0356 0.0356
vt 0.5850 0.4336 0.4336
vt 0.5757 0.4238 0.4238
vt 0.5684 0.4160 0.4160
vt 0.5684 0.0439 0.0439
vt 0.5757 0.0356 0.0356
vt 0.4929 0.0439 0.0439
vt 0.4929 0.4160 0.4160
vt 0.4761 0.0259 0.0259
vt 0.5850 0.0259 0.0259
vt 0.5889 0.0215 0.0215
vt 0.5889 0.4385 0.4385
vt 0.4717 0.4385 0.4385
vt 0.6060 0.0049 0.0049
vt 0.4651 0.0142 0.0142
vt 0.4651 0.4458 0.4458
vt 0.5962 0.4458 0.4458
vt 0.5962 0.0142 0.0142
vt 0.4717 0.0215 0.0215
vt 0.6060 0.4551 0.4551
vt 0.6162 0.3174 0.3174
vt 0.7417 0.3174 0.3174
vt 0.8730 0.3179 0.3179
vt 0.7363 0.5923 0.5923
vt 0.6055 0.5918 0.5918
vt 0.6064 0.4673 0.4673
vt 0.7378 0.4673 0.4673
vt 0.9980 0.3179 0.3179
vt 0.4558 0.2012 0.2012
vt 0.4558 0.3638 0.3638
vt 0.4634 0.3560 0.3560
vt 0.4634 0.2090 0.2090
vt 0.3079 0.3242 0.3242
vt 0.1580 0.3242 0.3242
vt 0.4651 0.3223 0.3223
vt 0.4556 0.3242 0.3242
vt 0.6035 0.3223 0.3223
vt 0.5962 0.3223 0.3223
vt 0.0102 0.3242 0.3242
vt 0.6196 0.7258 0.7258
vt 0.6299 0.7336 0.7336
vt 0.6172 0.7175 0.7175
vt 0.6294 0.7026 0.7026
vt 0.7197 0.7026 0.7026
vt 0.7319 0.7175 0.7175
vt 0.7295 0.7258 0.7258
vt 0.7192 0.7336 0.7336
vt 0.6279 0.7261 0.7261
vt 0.7212 0.7261 0.7261
vt 0.7231 0.7175 0.7175
vt 0.6260 0.7175 0.7175
vt 0.4929 0.3096 0.3096
vt 0.4858 0.3149 0.3149
vt 0.4761 0.3188 0.3188
vt 0.4717 0.3188 0.3188
vt 0.6279 0.6638 0.6638
vt 0.6260 0.6550 0.6550
vt 0.7231 0.6550 0.6550
vt 0.7212 0.6638 0.6638
vt 0.6196 0.7571 0.7571
vt 0.6299 0.7648 0.7648
vt 0.6172 0.7485 0.7485
vt 0.6294 0.7339 0.7339
vt 0.7197 0.7339 0.7339
vt 0.7319 0.7485 0.7485
vt 0.7295 0.7571 0.7571
vt 0.7192 0.7648 0.7648
vt 0.6196 0.7882 0.7882
vt 0.6299 0.7960 0.7960
vt 0.6172 0.7797 0.7797
vt 0.6294 0.7650 0.7650
vt 0.7197 0.7650 0.7650
vt 0.7319 0.7797 0.7797
vt 0.7295 0.7882 0.7882
vt 0.7192 0.7960 0.7960
vt 0.0050 0.4609 0.4609
vt 0.0026 0.4585 0.4585
vt 0.0026 0.6069 0.6069
vt 0.0050 0.6047 0.6047
vt 0.1537 0.6069 0.6069
vt 0.1512 0.6047 0.6047
vt 0.1537 0.4585 0.4585
vt 0.1512 0.4609 0.4609
vt 0.5889 0.3188 0.3188
vt 0.5850 0.3188 0.3188
vt 0.5757 0.3149 0.3149
vt 0.5684 0.3096 0.3096
vt 0.6279 0.7572 0.7572
vt 0.7212 0.7572 0.7572
vt 0.7231 0.7485 0.7485
vt 0.6260 0.7485 0.7485
vt 0.6279 0.7883 0.7883
vt 0.6260 0.7797 0.7797
vt 0.7231 0.7797 0.7797
vt 0.7212 0.7883 0.7883
# 205 texture coords

g OBJ_LOCKER_CLOTHING
usemtl OBJ_LOCKER_Tpage
s 1
f 1/1/1 2/2/1 3/3/1 
s 2
f 3/3/1 4/4/1 1/1/1 
s 3
f 5/5/2 6/6/3 7/7/4 
s 4
f 6/6/3 8/8/5 9/9/6 
s 5
f 6/6/3 9/9/6 7/7/4 
s 6
f 9/9/6 10/10/7 7/7/4 
s 7
f 10/10/7 11/11/8 7/7/4 
s 8
f 9/9/6 12/12/9 10/10/7 
s 9
f 13/13/10 14/14/11 15/15/12 
s 10
f 14/14/11 16/16/13 17/17/14 
s 11
f 14/14/11 17/17/14 15/15/12 
s 12
f 17/17/14 18/18/15 15/15/12 
s 13
f 18/18/15 19/19/16 15/15/12 
s 14
f 17/17/14 20/20/17 18/18/15 
s 15
f 15/15/12 19/21/16 6/22/3 
s 16
f 6/22/3 5/23/2 15/15/12 
s 17
f 13/24/10 15/15/12 5/23/2 
s 18
f 5/23/2 7/25/4 13/24/10 
s 19
f 14/26/11 13/24/10 7/25/4 
s 20
f 7/25/4 11/27/8 14/26/11 
s 21
f 16/28/13 14/26/11 11/27/8 
s 22
f 11/27/8 10/29/7 16/28/13 
s 23
f 17/30/14 16/28/13 10/29/7 
s 24
f 10/29/7 12/12/9 17/30/14 
s 25
f 20/31/17 17/30/14 12/12/9 
s 26
f 12/12/9 9/32/6 20/31/17 
s 27
f 18/33/15 20/31/17 9/32/6 
s 28
f 9/32/6 8/34/5 18/33/15 
s 29
f 19/35/16 18/33/15 8/34/5 
s 30
f 8/34/5 6/36/3 19/35/16 
s 31
f 21/37/18 2/2/19 1/1/14 
s 32
f 4/38/20 22/39/21 23/40/22 
s 33
f 23/40/22 1/1/14 4/38/20 
s 34
f 1/1/14 23/40/22 21/37/18 
s 35
f 21/37/18 23/40/22 22/41/21 
s 36
f 22/41/21 24/42/23 21/37/18 
s 37
f 25/43/24 26/44/25 27/45/1 
s 38
f 27/45/1 28/46/26 25/43/24 
s 39
f 25/47/24 29/48/9 30/49/27 
s 40
f 30/49/27 26/44/25 25/47/24 
s 41
f 31/50/28 32/51/28 33/52/28 
s 42
f 33/52/28 34/53/28 31/50/28 
s 43
f 35/54/27 36/55/27 37/56/9 
s 44
f 37/56/9 38/57/9 35/54/27 
s 45
f 38/57/9 37/56/9 33/52/19 
s 46
f 33/52/19 32/51/19 38/57/9 
s 47
f 39/58/28 40/59/28 41/60/28 
s 48
f 41/60/28 42/61/28 39/58/28 
s 49
f 43/62/27 44/63/27 45/64/9 
s 50
f 45/64/9 46/65/9 43/62/27 
s 51
f 46/65/9 45/64/9 41/60/19 
s 52
f 41/60/19 40/59/19 46/65/9 
s 53
f 47/66/22 48/67/29 49/68/30 
s 54
f 49/68/30 50/69/31 47/66/22 
s 55
f 47/70/22 51/71/17 52/72/32 
s 56
f 52/72/32 48/67/29 47/70/22 
s 57
f 53/73/33 54/74/25 52/72/32 
s 58
f 52/72/32 51/75/17 53/73/33 
s 59
f 51/75/17 47/76/22 53/73/33 
s 60
f 47/76/22 50/77/31 53/73/33 
s 61
f 53/78/33 50/79/31 49/80/30 
s 62
f 49/80/30 54/81/25 53/78/33 
s 63
f 28/82/28 27/83/28 55/84/28 
s 64
f 55/84/28 56/85/28 28/82/28 
s 65
f 30/49/34 55/86/34 27/45/34 
s 66
f 27/45/34 26/44/34 30/49/34 
s 67
f 29/87/35 56/88/35 55/86/35 
s 68
f 55/86/35 30/49/35 29/87/35 
s 69
f 57/89/36 58/90/37 59/89/38 
s 70
f 60/91/39 57/89/36 59/89/38 
s 71
f 59/89/38 61/91/40 60/91/39 
s 72
f 60/91/39 61/91/40 62/92/41 
s 73
f 63/93/42 64/94/43 65/94/44 
s 74
f 66/95/45 65/94/44 64/94/43 
s 75
f 64/94/43 67/95/46 66/95/45 
s 76
f 66/95/45 67/95/46 68/96/47 
s 77
f 69/97/48 70/98/49 71/99/50 
s 78
f 71/99/50 72/100/51 69/97/48 
s 79
f 70/98/49 69/97/48 73/101/42 
s 80
f 73/101/42 74/102/41 70/98/49 
s 81
f 75/103/40 70/98/49 74/102/41 
s 82
f 70/98/49 75/103/40 76/104/38 
s 83
f 76/104/38 71/99/50 70/98/49 
s 84
f 77/105/37 71/99/50 76/104/38 
s 85
f 72/100/51 71/99/50 77/105/37 
s 86
f 77/105/37 78/106/47 72/100/51 
s 87
f 79/107/46 72/100/51 78/106/47 
s 88
f 72/100/51 79/107/46 80/108/43 
s 89
f 80/108/43 69/97/48 72/100/51 
s 90
f 80/108/43 73/101/42 69/97/48 
s 91
f 81/109/52 82/110/53 83/111/54 
s 92
f 82/110/53 81/109/52 84/112/55 
s 93
f 84/112/55 85/113/56 82/110/53 
s 94
f 82/110/53 85/113/56 22/114/21 
s 95
f 24/115/23 22/114/21 85/113/56 
s 96
f 85/113/56 86/116/57 24/115/23 
s 97
f 3/117/34 24/115/23 86/116/57 
s 98
f 86/116/57 83/111/54 3/117/34 
s 99
f 4/118/20 3/117/34 83/111/54 
s 100
f 83/111/54 82/110/53 4/118/20 
s 101
f 22/114/21 4/118/20 82/110/53 
s 102
f 83/111/54 87/119/58 81/109/52 
s 103
f 88/120/59 87/119/58 83/111/54 
s 104
f 83/111/54 86/116/57 88/120/59 
s 105
f 84/112/55 88/120/59 86/116/57 
s 106
f 86/116/57 85/113/56 84/112/55 
s 107
f 87/119/58 88/120/59 89/121/60 
s 108
f 90/122/61 89/121/60 88/120/59 
s 109
f 88/120/59 84/112/55 90/122/61 
s 110
f 91/123/62 90/122/61 84/112/55 
s 111
f 28/124/26 56/88/19 92/125/63 
s 112
f 93/126/52 92/125/63 56/88/19 
s 113
f 92/125/63 93/126/52 91/123/62 
s 114
f 90/122/61 91/123/62 93/126/52 
s 115
f 93/126/52 94/127/55 90/122/61 
s 116
f 89/121/60 90/122/61 94/127/55 
s 117
f 94/127/55 95/128/59 89/121/60 
s 118
f 96/129/64 89/121/60 95/128/59 
s 119
f 89/121/60 96/129/64 87/119/58 
s 120
f 81/109/52 87/119/58 96/129/64 
s 121
f 56/88/19 29/87/9 93/126/52 
s 122
f 94/127/55 93/126/52 29/87/9 
s 123
f 29/87/9 25/130/24 94/127/55 
s 124
f 95/128/59 94/127/55 25/130/24 
s 125
f 25/130/24 28/124/26 95/128/59 
s 126
f 92/125/63 95/128/59 28/124/26 
s 127
f 95/128/59 92/125/63 96/129/64 
s 128
f 91/123/62 96/129/64 92/125/63 
s 129
f 96/129/64 91/123/62 81/109/52 
s 130
f 84/112/55 81/109/52 91/123/62 
s 131
f 97/40/13 98/41/65 99/131/66 
s 132
f 99/131/66 100/132/18 97/40/13 
s 133
f 97/40/13 100/132/18 101/133/19 
s 134
f 101/133/19 102/1/14 97/40/13 
s 135
f 97/40/13 102/1/14 103/38/67 
s 136
f 103/38/67 98/39/65 97/40/13 
s 137
f 101/134/27 100/135/27 99/136/27 
s 138
f 99/136/27 104/137/27 101/134/27 
s 139
f 101/133/1 104/138/1 103/4/1 
s 140
f 103/4/1 102/1/1 101/133/1 
s 141
f 105/139/68 106/140/19 107/141/69 
s 142
f 107/141/69 108/142/70 105/139/68 
s 143
f 109/127/71 110/126/72 111/87/73 
s 144
f 111/87/73 112/130/69 109/127/71 
s 145
f 112/47/69 111/48/73 113/49/27 
s 146
f 113/49/27 114/44/25 112/47/69 
s 147
f 115/143/34 116/144/34 114/44/34 
s 148
f 114/44/34 113/49/34 115/143/34 
s 149
f 110/126/72 107/145/69 106/146/19 
s 150
f 106/146/19 111/87/73 110/126/72 
s 151
f 106/146/35 115/143/35 113/49/35 
s 152
f 113/49/35 111/87/35 106/146/35 
s 153
f 105/147/68 108/148/70 109/127/71 
s 154
f 109/127/71 112/130/69 105/147/68 
s 155
f 114/44/25 116/144/1 105/149/68 
s 156
f 105/149/68 112/43/69 114/44/25 
s 157
f 2/134/27 21/135/27 24/136/27 
s 158
f 24/136/27 3/137/27 2/134/27 
s 159
f 117/104/36 77/105/37 76/104/38 
s 160
f 118/103/39 117/104/36 76/104/38 
s 161
f 76/104/38 75/103/40 118/103/39 
s 162
f 118/103/39 75/103/40 74/102/41 
s 163
f 73/101/42 80/108/43 119/108/44 
s 164
f 120/107/45 119/108/44 80/108/43 
s 165
f 80/108/43 79/107/46 120/107/45 
s 166
f 120/107/45 79/107/46 78/106/47 
s 167
f 121/150/36 122/151/37 123/150/38 
s 168
f 124/152/39 121/150/36 123/150/38 
s 169
f 123/150/38 125/152/40 124/152/39 
s 170
f 124/152/39 125/152/40 126/153/41 
s 171
f 127/154/42 128/155/43 129/155/44 
s 172
f 130/156/45 129/155/44 128/155/43 
s 173
f 128/155/43 131/156/46 130/156/45 
s 174
f 130/156/45 131/156/46 132/157/47 
s 175
f 122/151/37 133/158/50 123/150/38 
s 176
f 134/159/51 133/158/50 122/151/37 
s 177
f 133/158/50 134/159/51 135/160/74 
s 178
f 135/160/74 136/161/49 133/158/50 
s 179
f 122/151/37 132/157/47 134/159/51 
s 180
f 131/156/46 134/159/51 132/157/47 
s 181
f 134/159/51 131/156/46 128/155/43 
s 182
f 128/155/43 135/160/74 134/159/51 
s 183
f 128/155/43 127/154/42 135/160/74 
s 184
f 136/161/49 135/160/74 127/154/42 
s 185
f 127/154/42 126/153/41 136/161/49 
s 186
f 125/152/40 136/161/49 126/153/41 
s 187
f 136/161/49 125/152/40 123/150/38 
s 188
f 123/150/38 133/158/50 136/161/49 
s 189
f 137/110/75 103/118/67 104/162/76 
s 190
f 104/162/76 138/163/77 137/110/75 
s 191
f 137/110/75 138/163/77 139/164/78 
s 192
f 139/164/78 140/109/79 137/110/75 
s 193
f 140/109/79 139/164/78 141/165/80 
s 194
f 141/165/80 142/123/81 140/109/79 
s 195
f 110/126/72 142/123/81 141/165/80 
s 196
f 141/165/80 107/145/69 110/126/72 
s 197
f 58/90/37 143/166/50 59/89/38 
s 198
f 59/89/38 143/166/50 144/167/49 
s 199
f 145/168/48 144/167/49 143/166/50 
s 200
f 143/166/50 146/169/51 145/168/48 
s 201
f 144/167/49 61/91/40 59/89/38 
s 202
f 61/91/40 144/167/49 62/92/41 
s 203
f 63/93/42 62/92/41 144/167/49 
s 204
f 144/167/49 145/168/48 63/93/42 
s 205
f 64/94/43 63/93/42 145/168/48 
s 206
f 64/94/43 145/168/48 146/169/51 
s 207
f 146/169/51 67/95/46 64/94/43 
s 208
f 67/95/46 146/169/51 68/96/47 
s 209
f 58/90/37 68/96/47 146/169/51 
s 210
f 146/169/51 143/166/50 58/90/37 
s 211
f 147/170/36 148/171/37 149/170/38 
s 212
f 150/172/82 147/170/36 149/170/38 
s 213
f 149/170/38 151/172/83 150/172/82 
s 214
f 150/172/82 151/172/83 152/173/41 
s 215
f 153/174/42 154/175/43 155/175/44 
s 216
f 156/176/45 155/175/44 154/175/43 
s 217
f 154/175/43 157/176/46 156/176/45 
s 218
f 156/176/45 157/176/46 158/177/47 
s 219
f 159/178/36 160/179/37 161/178/38 
s 220
f 162/180/39 159/178/36 161/178/38 
s 221
f 161/178/38 163/180/40 162/180/39 
s 222
f 162/180/39 163/180/40 164/181/41 
s 223
f 165/182/42 166/183/43 167/183/44 
s 224
f 168/184/45 167/183/44 166/183/43 
s 225
f 166/183/43 169/184/46 168/184/45 
s 226
f 168/184/45 169/184/46 170/185/47 
s 227
f 171/186/84 105/187/84 116/188/85 
s 228
f 116/188/85 172/189/85 171/186/84 
s 229
f 172/189/85 116/188/85 115/190/86 
s 230
f 115/190/86 173/191/86 172/189/85 
s 231
f 173/191/86 115/190/86 106/192/87 
s 232
f 106/192/87 174/193/87 173/191/86 
s 233
f 174/193/87 106/192/87 105/187/84 
s 234
f 105/187/84 171/186/84 174/193/87 
s 235
f 110/126/72 109/127/71 175/122/22 
s 236
f 175/122/22 142/123/81 110/126/72 
s 237
f 142/123/81 175/122/22 176/112/88 
s 238
f 176/112/88 140/109/79 142/123/81 
s 239
f 137/110/75 140/109/79 176/112/88 
s 240
f 176/112/88 177/113/89 137/110/75 
s 241
f 137/110/75 177/113/89 98/114/65 
s 242
f 98/114/65 103/118/67 137/110/75 
s 243
f 108/128/70 107/125/69 141/129/80 
s 244
f 141/129/80 178/121/90 108/128/70 
s 245
f 178/121/90 141/129/80 139/119/78 
s 246
f 139/119/78 179/120/91 178/121/90 
s 247
f 179/120/91 139/119/78 138/111/77 
s 248
f 138/111/77 180/116/92 179/120/91 
s 249
f 180/116/92 138/111/77 104/117/76 
s 250
f 104/117/76 99/115/66 180/116/92 
s 251
f 175/122/22 109/127/71 108/148/70 
s 252
f 108/148/70 178/194/90 175/122/22 
s 253
f 176/112/88 175/122/22 178/194/90 
s 254
f 178/194/90 179/195/91 176/112/88 
s 255
f 177/113/89 176/112/88 179/195/91 
s 256
f 179/195/91 180/196/92 177/113/89 
s 257
f 177/113/89 180/196/92 99/197/66 
s 258
f 99/197/66 98/114/65 177/113/89 
s 259
f 148/171/37 181/198/50 149/170/38 
s 260
f 182/199/51 181/198/50 148/171/37 
s 261
f 181/198/50 182/199/51 183/200/48 
s 262
f 183/200/48 184/201/49 181/198/50 
s 263
f 148/171/37 158/177/47 182/199/51 
s 264
f 157/176/46 182/199/51 158/177/47 
s 265
f 182/199/51 157/176/46 154/175/43 
s 266
f 154/175/43 183/200/48 182/199/51 
s 267
f 154/175/43 153/174/42 183/200/48 
s 268
f 184/201/49 183/200/48 153/174/42 
s 269
f 153/174/42 152/173/41 184/201/49 
s 270
f 151/172/83 184/201/49 152/173/41 
s 271
f 184/201/49 151/172/83 149/170/38 
s 272
f 149/170/38 181/198/50 184/201/49 
s 273
f 160/179/37 185/202/50 161/178/38 
s 274
f 161/178/38 185/202/50 186/203/49 
s 275
f 186/203/49 163/180/40 161/178/38 
s 276
f 163/180/40 186/203/49 164/181/41 
s 277
f 165/182/42 164/181/41 186/203/49 
s 278
f 186/203/49 187/204/74 165/182/42 
s 279
f 166/183/43 165/182/42 187/204/74 
s 280
f 166/183/43 187/204/74 188/205/51 
s 281
f 188/205/51 169/184/46 166/183/43 
s 282
f 169/184/46 188/205/51 170/185/47 
s 283
f 160/179/37 170/185/47 188/205/51 
s 284
f 188/205/51 185/202/50 160/179/37 
s 285
f 185/202/50 188/205/51 187/204/74 
s 286
f 187/204/74 186/203/49 185/202/50 
# 286 faces

