# Wavefront OBJ file
# Exported by Misfit Model 3D 1.3.8
# Fri Jun 20 02:41:45 2014

mtllib pat_sock.mtl

# 53 Vertices
v -0.3069 -0.109 0.2158
v -0.0643 -0.0988 0.2071
v 0.2659 -0.0955 0.1682
v 0.2178 0.0237 0.053
v 0.2432 0.1097 -0.085
v 0.3242 0.2009 -0.1764
v 0.3195 0.3231 -0.2971
v -0.3069 -0.0247 0.2592
v -0.0643 -0.0317 0.2414
v 0.2473 -0.0313 0.205
v 0.1987 0.0788 0.101
v 0.233 0.1649 -0.037
v 0.3034 0.2561 -0.1284
v 0.303 0.3887 -0.2414
v -0.4235 0.0165 0.2116
v -0.3189 0.131 0.1281
v -0.0897 0.0672 0.0889
v 0.0227 0.1296 0.0788
v 0.0281 0.1893 -0.0651
v 0.0596 0.2623 -0.1157
v 0.0314 0.3887 -0.2414
v -0.4482 -0.0386 0.1637
v -0.3189 0.0784 0.0524
v -0.0961 0.0431 0.0359
v 0.0035 0.0597 0.0181
v 0.0072 0.1341 -0.113
v 0.0435 0.1773 -0.1897
v 0.0149 0.3231 -0.2971
v 0.184 -0.0713 0.2516
v 0.2073 -0.1389 0.2162
v -0.4025 0.1049 0.1581
v -0.428 0.037 0.1003
v -0.2671 0.0648 0.223
v -0.1916 0.0511 0.1831
v 0.0288 0.0381 0.2258
v 0.0783 0.0727 0.1805
v 0.105 0.0875 0.0713
v 0.1322 0.1987 -0.0323
v 0.174 0.2977 -0.0882
v 0.1698 0.3837 -0.2175
v 0.1672 0.3251 -0.2914
v 0.0066 0.416 -0.2537
v -0.0131 0.3415 -0.3169
v 0.1703 0.4334 -0.2048
v 0.1672 0.344 -0.3099
v 0.3475 0.3417 -0.3167
v 0.3278 0.4162 -0.2535
v 0.0168 0.4463 -0.2687
v -0.0109 0.3906 -0.3535
v 0.1703 0.4637 -0.2197
v 0.1672 0.4051 -0.3601
v 0.3454 0.3911 -0.3532
v 0.3138 0.4467 -0.2683

# 306 Texture Coordinates
vt 0.2166 0.0742
vt 0.2166 0.0469
vt 0.4808 0.0849
vt 0.2166 0.0469
vt 0.4808 0.063
vt 0.4808 0.0849
vt 0.7766 0.0227
vt 0.8405 0.1012
vt 0.7513 0.0442
vt 0.8405 0.1012
vt 0.8203 0.1186
vt 0.7513 0.0442
vt 0.8405 0.1012
vt 0.7881 0.3017
vt 0.8203 0.1186
vt 0.7881 0.3017
vt 0.7672 0.3017
vt 0.8203 0.1186
vt 0.7672 0.3017
vt 0.7881 0.3017
vt 0.8047 0.4967
vt 0.7881 0.3017
vt 0.8158 0.4967
vt 0.8047 0.4967
vt 0.904 0.653
vt 0.8813 0.653
vt 0.8158 0.4967
vt 0.8158 0.4967
vt 0.8813 0.653
vt 0.8047 0.4967
vt 0.8988 0.8608
vt 0.8808 0.862
vt 0.904 0.653
vt 0.904 0.653
vt 0.8808 0.862
vt 0.8813 0.653
vt 0.0896 0.1507
vt 0.2599 0.1787
vt 0.1125 0.2701
vt 0.5823 0.1549
vt 0.6362 0.224
vt 0.4531 0.3034
vt 0.4531 0.3034
vt 0.6362 0.224
vt 0.5756 0.3624
vt 0.6362 0.224
vt 0.6652 0.3358
vt 0.5756 0.3624
vt 0.5815 0.5418
vt 0.5756 0.3624
vt 0.6949 0.5192
vt 0.6652 0.3358
vt 0.6949 0.5192
vt 0.5756 0.3624
vt 0.6949 0.5192
vt 0.7404 0.6492
vt 0.5815 0.5418
vt 0.7404 0.6492
vt 0.6158 0.6463
vt 0.5815 0.5418
vt 0.6158 0.6463
vt 0.7404 0.6492
vt 0.5851 0.862
vt 0.7404 0.6492
vt 0.7358 0.8362
vt 0.5851 0.862
vt 0.0847 0.269
vt 0.0627 0.1507
vt 0.1125 0.2701
vt 0.0896 0.1507
vt 0.1125 0.2701
vt 0.0627 0.1507
vt 0.2035 0.3184
vt 0.4531 0.3034
vt 0.2035 0.3458
vt 0.4531 0.3034
vt 0.4462 0.3328
vt 0.2035 0.3458
vt 0.5756 0.3624
vt 0.5547 0.3624
vt 0.4531 0.3034
vt 0.4531 0.3034
vt 0.5547 0.3624
vt 0.4462 0.3328
vt 0.5756 0.3624
vt 0.5815 0.5418
vt 0.5547 0.3624
vt 0.5815 0.5418
vt 0.5588 0.5418
vt 0.5547 0.3624
vt 0.5983 0.6463
vt 0.5588 0.5418
vt 0.6158 0.6463
vt 0.5815 0.5418
vt 0.6158 0.6463
vt 0.5588 0.5418
vt 0.5983 0.6463
vt 0.6158 0.6463
vt 0.5671 0.8608
vt 0.6158 0.6463
vt 0.5851 0.862
vt 0.5671 0.8608
vt 0.0847 0.269
vt 0.4808 0.063
vt 0.0627 0.1507
vt 0.0627 0.1507
vt 0.4808 0.063
vt 0.2166 0.0469
vt 0.7766 0.0227
vt 0.4462 0.3328
vt 0.8405 0.1012
vt 0.4462 0.3328
vt 0.5547 0.3624
vt 0.8405 0.1012
vt 0.5547 0.3624
vt 0.7881 0.3017
vt 0.8405 0.1012
vt 0.5588 0.5418
vt 0.8158 0.4967
vt 0.5547 0.3624
vt 0.5547 0.3624
vt 0.8158 0.4967
vt 0.7881 0.3017
vt 0.904 0.653
vt 0.8158 0.4967
vt 0.5983 0.6463
vt 0.5588 0.5418
vt 0.5983 0.6463
vt 0.8158 0.4967
vt 0.5983 0.6463
vt 0.5671 0.8608
vt 0.733 0.8572
vt 0.7329 0.9839
vt 0.5389 0.9662
vt 0.7364 0.9019
vt 0.5389 0.9662
vt 0.5692 0.9328
vt 0.7364 0.9019
vt 0.0627 0.1507
vt 0.2166 0.0469
vt 0.0896 0.1507
vt 0.2166 0.0469
vt 0.2166 0.0742
vt 0.0896 0.1507
vt 0.2035 0.3184
vt 0.3421 0.2044
vt 0.4531 0.3034
vt 0.3421 0.2044
vt 0.5823 0.1549
vt 0.4531 0.3034
vt 0.4808 0.063
vt 0.7766 0.0227
vt 0.4808 0.0849
vt 0.7766 0.0227
vt 0.7513 0.0442
vt 0.4808 0.0849
vt 0.7766 0.0227
vt 0.4808 0.063
vt 0.4462 0.3328
vt 0.2035 0.3458
vt 0.4462 0.3328
vt 0.4808 0.063
vt 0.3421 0.2044
vt 0.2035 0.3184
vt 0.2599 0.1787
vt 0.1125 0.2701
vt 0.2599 0.1787
vt 0.2035 0.3184
vt 0.2035 0.3458
vt 0.0847 0.269
vt 0.2035 0.3184
vt 0.0847 0.269
vt 0.1125 0.2701
vt 0.2035 0.3184
vt 0.4808 0.063
vt 0.0847 0.269
vt 0.2035 0.3458
vt 0.2166 0.0742
vt 0.4808 0.0849
vt 0.2599 0.1787
vt 0.2599 0.1787
vt 0.4808 0.0849
vt 0.3421 0.2044
vt 0.7513 0.0442
vt 0.5823 0.1549
vt 0.4808 0.0849
vt 0.4808 0.0849
vt 0.5823 0.1549
vt 0.3421 0.2044
vt 0.6362 0.224
vt 0.5823 0.1549
vt 0.8203 0.1186
vt 0.7513 0.0442
vt 0.8203 0.1186
vt 0.5823 0.1549
vt 0.6362 0.224
vt 0.8203 0.1186
vt 0.6652 0.3358
vt 0.8203 0.1186
vt 0.7672 0.3017
vt 0.6652 0.3358
vt 0.8047 0.4967
vt 0.6949 0.5192
vt 0.7672 0.3017
vt 0.7672 0.3017
vt 0.6949 0.5192
vt 0.6652 0.3358
vt 0.8813 0.653
vt 0.7404 0.6492
vt 0.8047 0.4967
vt 0.8047 0.4967
vt 0.7404 0.6492
vt 0.6949 0.5192
vt 0.8808 0.862
vt 0.7358 0.8362
vt 0.8813 0.653
vt 0.8813 0.653
vt 0.7358 0.8362
vt 0.7404 0.6492
vt 0.7329 0.9839
vt 0.7364 0.9019
vt 0.927 0.9663
vt 0.927 0.9663
vt 0.7364 0.9019
vt 0.8926 0.9328
vt 0.5983 0.6463
vt 0.733 0.8572
vt 0.904 0.653
vt 0.733 0.8572
vt 0.8988 0.8608
vt 0.904 0.653
vt 0.2166 0.0742
vt 0.2599 0.1787
vt 0.0896 0.1507
vt 0.5365 0.8936
vt 0.5671 0.8608
vt 0.5581 0.895
vt 0.5671 0.8608
vt 0.5851 0.862
vt 0.5581 0.895
vt 0.5581 0.895
vt 0.5851 0.862
vt 0.7364 0.8641
vt 0.5851 0.862
vt 0.7358 0.8362
vt 0.7364 0.8641
vt 0.5365 0.8936
vt 0.7329 0.8892
vt 0.5671 0.8608
vt 0.733 0.8572
vt 0.5671 0.8608
vt 0.7329 0.8892
vt 0.7329 0.8892
vt 0.9294 0.8936
vt 0.733 0.8572
vt 0.8988 0.8608
vt 0.733 0.8572
vt 0.9294 0.8936
vt 0.9078 0.895
vt 0.7364 0.8641
vt 0.8808 0.862
vt 0.7358 0.8362
vt 0.8808 0.862
vt 0.7364 0.8641
vt 0.9294 0.8936
vt 0.9078 0.895
vt 0.8988 0.8608
vt 0.8808 0.862
vt 0.8988 0.8608
vt 0.9078 0.895
vt 0.5365 0.8936
vt 0.5581 0.895
vt 0.5389 0.9662
vt 0.5581 0.895
vt 0.5692 0.9328
vt 0.5389 0.9662
vt 0.5581 0.895
vt 0.7364 0.8641
vt 0.5692 0.9328
vt 0.7364 0.8641
vt 0.7364 0.9019
vt 0.5692 0.9328
vt 0.7329 0.9839
vt 0.7329 0.8892
vt 0.5389 0.9662
vt 0.7329 0.8892
vt 0.5365 0.8936
vt 0.5389 0.9662
vt 0.7329 0.9839
vt 0.927 0.9663
vt 0.7329 0.8892
vt 0.9294 0.8936
vt 0.7329 0.8892
vt 0.927 0.9663
vt 0.9078 0.895
vt 0.8926 0.9328
vt 0.7364 0.8641
vt 0.7364 0.8641
vt 0.8926 0.9328
vt 0.7364 0.9019
vt 0.9294 0.8936
vt 0.927 0.9663
vt 0.9078 0.895
vt 0.9078 0.895
vt 0.927 0.9663
vt 0.8926 0.9328

# 306 Vertex Normals
vn -0.151559 -0.021615 0.988212
vn -0.222358 -0.454974 0.862297
vn -0.028783 -0.138296 0.989973
vn -0.222358 -0.454974 0.862297
vn -0.022852 -0.455039 0.890178
vn -0.028783 -0.138296 0.989973
vn 0.174238 -0.395865 0.901627
vn 0.860529 -0.015169 0.509175
vn 0.341863 -0.018627 0.939565
vn 0.860529 -0.015169 0.509175
vn 0.606764 0.557293 0.5668
vn 0.341863 -0.018627 0.939565
vn 0.860529 -0.015169 0.509175
vn 0.975794 0.198409 0.091981
vn 0.719074 0.498319 0.484367
vn 0.975794 0.198409 0.091981
vn 0.474291 0.659779 0.582872
vn 0.606764 0.557293 0.5668
vn 0.474291 0.659779 0.582872
vn 0.975794 0.198409 0.091981
vn 0.722731 0.305495 0.619945
vn 0.975794 0.198409 0.091981
vn 0.905974 -0.129724 0.402968
vn 0.722731 0.305495 0.619945
vn 0.951873 0.054819 0.301552
vn 0.697905 0.3288 0.636254
vn 0.905974 -0.129724 0.402968
vn 0.905974 -0.129724 0.402968
vn 0.697905 0.3288 0.636254
vn 0.722731 0.305495 0.619945
vn 0.846772 -0.201648 0.492256
vn 0.665326 0.105727 0.739029
vn 0.951873 0.054819 0.301552
vn 0.951873 0.054819 0.301552
vn 0.665326 0.105727 0.739029
vn 0.697905 0.3288 0.636254
vn -0.56632 0.109991 0.816813
vn 0.06039 0.690025 0.721262
vn -0.650135 0.590191 0.478539
vn 0.023931 0.67042 0.741596
vn 0.134995 0.862702 0.487362
vn -0.098684 0.993905 -0.049129
vn -0.098684 0.993905 -0.049129
vn 0.134995 0.862702 0.487362
vn -0.258349 0.914359 0.311774
vn 0.134995 0.862702 0.487362
vn 0.212166 0.788764 0.57692
vn -0.036153 0.944293 0.327114
vn -0.722165 0.575426 0.383878
vn -0.258349 0.914359 0.311774
vn 0.032788 0.701027 0.712381
vn 0.212166 0.788764 0.57692
vn 0.032788 0.701027 0.712381
vn 0.076596 0.846063 0.527551
vn 0.032788 0.701027 0.712381
vn -0.014968 0.661594 0.749713
vn -0.722165 0.575426 0.383878
vn -0.014968 0.661594 0.749713
vn -0.867534 0.387147 0.312252
vn -0.722165 0.575426 0.383878
vn -0.867534 0.387147 0.312252
vn -0.014968 0.661594 0.749713
vn -0.524882 0.212379 0.824253
vn -0.014968 0.661594 0.749713
vn 0.10983 0.424644 0.898674
vn -0.524882 0.212379 0.824253
vn -0.684588 0.621322 -0.38118
vn -0.927025 0.068662 0.368659
vn -0.676849 0.689313 0.25831
vn -0.56632 0.109991 0.816813
vn -0.676849 0.689313 0.25831
vn -0.927025 0.068662 0.368659
vn -0.033542 0.998431 -0.044842
vn -0.098684 0.993905 -0.049129
vn -0.08707 0.849905 -0.519693
vn -0.098684 0.993905 -0.049129
vn -0.054111 0.91142 -0.407904
vn -0.08707 0.849905 -0.519693
vn -0.397155 0.902399 0.167164
vn -0.760141 0.601451 -0.245851
vn -0.098684 0.993905 -0.049129
vn -0.098684 0.993905 -0.049129
vn -0.760141 0.601451 -0.245851
vn -0.054111 0.91142 -0.407904
vn -0.607283 0.784817 0.123567
vn -0.722165 0.575426 0.383878
vn -0.760141 0.601451 -0.245851
vn -0.722165 0.575426 0.383878
vn -0.940179 0.337675 -0.045148
vn -0.760141 0.601451 -0.245851
vn -0.983408 0.181319 0.005686
vn -0.940179 0.337675 -0.045148
vn -0.867534 0.387147 0.312252
vn -0.722165 0.575426 0.383878
vn -0.867534 0.387147 0.312252
vn -0.940179 0.337675 -0.045148
vn -0.983408 0.181319 0.005686
vn -0.867534 0.387147 0.312252
vn -0.870843 -0.183029 0.456216
vn -0.867534 0.387147 0.312252
vn -0.524882 0.212379 0.824253
vn -0.870843 -0.183029 0.456216
vn -0.218512 -0.295542 -0.930004
vn -0.066145 -0.702115 -0.708985
vn -0.008556 -0.62011 -0.784468
vn -0.008556 -0.62011 -0.784468
vn -0.066145 -0.702115 -0.708985
vn -0.003503 -0.599403 -0.80044
vn -0.059971 -0.75119 -0.657356
vn -0.074583 -0.746976 -0.660654
vn -0.011876 -0.708089 -0.706023
vn -0.074583 -0.746976 -0.660654
vn -0.023947 -0.784229 -0.620009
vn -0.011876 -0.708089 -0.706023
vn -0.023947 -0.784229 -0.620009
vn -0.027217 -0.774587 -0.631881
vn -0.011876 -0.708089 -0.706023
vn -0.030584 -0.866854 -0.497623
vn -0.005442 -0.834775 -0.550564
vn -0.023947 -0.784229 -0.620009
vn -0.023947 -0.784229 -0.620009
vn -0.005442 -0.834775 -0.550564
vn -0.027217 -0.774587 -0.631881
vn 0.049193 -0.690543 -0.721617
vn -0.005442 -0.834775 -0.550564
vn 0.048407 -0.713575 -0.698904
vn -0.030584 -0.866854 -0.497623
vn 0.048407 -0.713575 -0.698904
vn -0.005442 -0.834775 -0.550564
vn 0.048407 -0.713575 -0.698904
vn 0.037139 -0.665692 -0.745302
vn 0.009207 -0.669003 -0.743203
vn -0.00098 0.922851 -0.385157
vn -0.631022 0.736499 -0.243682
vn 0.001463 0.99883 -0.048337
vn -0.38127 0.852829 -0.356814
vn -0.554228 0.767189 -0.322881
vn -0.002607 0.876863 -0.480733
vn -0.927025 0.068662 0.368659
vn -0.222358 -0.454974 0.862297
vn -0.56632 0.109991 0.816813
vn -0.222358 -0.454974 0.862297
vn -0.151559 -0.021615 0.988212
vn -0.56632 0.109991 0.816813
vn -0.033542 0.998431 -0.044842
vn 0.19498 0.838585 0.508683
vn -0.098684 0.993905 -0.049129
vn 0.19498 0.838585 0.508683
vn 0.023931 0.67042 0.741596
vn -0.098684 0.993905 -0.049129
vn -0.022852 -0.455039 0.890178
vn 0.174238 -0.395865 0.901627
vn -0.028783 -0.138296 0.989973
vn 0.174238 -0.395865 0.901627
vn 0.341863 -0.018627 0.939565
vn -0.028783 -0.138296 0.989973
vn -0.059971 -0.75119 -0.657356
vn -0.066145 -0.702115 -0.708985
vn -0.074583 -0.746976 -0.660654
vn -0.109307 -0.738198 -0.665669
vn -0.074583 -0.746976 -0.660654
vn -0.066145 -0.702115 -0.708985
vn 0.19498 0.838585 0.508683
vn -0.033542 0.998431 -0.044842
vn 0.06039 0.690025 0.721262
vn -0.676849 0.689313 0.25831
vn 0.06039 0.690025 0.721262
vn -0.033542 0.998431 -0.044842
vn -0.08707 0.849905 -0.519693
vn -0.684588 0.621322 -0.38118
vn -0.033542 0.998431 -0.044842
vn -0.668471 0.374709 -0.642449
vn -0.74721 0.662161 0.056737
vn -0.033542 0.998431 -0.044842
vn -0.066145 -0.702115 -0.708985
vn -0.031788 -0.669081 -0.74251
vn -0.109307 -0.738198 -0.665669
vn -0.151559 -0.021615 0.988212
vn 0.026645 -0.006597 0.999623
vn 0.06039 0.690025 0.721262
vn 0.06039 0.690025 0.721262
vn 0.077606 0.489675 0.868444
vn 0.19498 0.838585 0.508683
vn 0.341863 -0.018627 0.939565
vn 0.023931 0.67042 0.741596
vn 0.026645 -0.006597 0.999623
vn 0.026645 -0.006597 0.999623
vn 0.023931 0.67042 0.741596
vn 0.19498 0.838585 0.508683
vn 0.134995 0.862702 0.487362
vn 0.023931 0.67042 0.741596
vn 0.606764 0.557293 0.5668
vn 0.341863 -0.018627 0.939565
vn 0.606764 0.557293 0.5668
vn 0.023931 0.67042 0.741596
vn 0.134995 0.862702 0.487362
vn 0.606764 0.557293 0.5668
vn 0.212166 0.788764 0.57692
vn 0.494576 0.568118 0.657751
vn 0.474291 0.659779 0.582872
vn 0.212166 0.788764 0.57692
vn 0.722731 0.305495 0.619945
vn 0.032788 0.701027 0.712381
vn 0.474291 0.659779 0.582872
vn 0.474291 0.659779 0.582872
vn 0.032788 0.701027 0.712381
vn 0.212166 0.788764 0.57692
vn 0.697905 0.3288 0.636254
vn -0.014968 0.661594 0.749713
vn 0.722731 0.305495 0.619945
vn 0.722731 0.305495 0.619945
vn -0.014968 0.661594 0.749713
vn 0.032788 0.701027 0.712381
vn 0.665326 0.105727 0.739029
vn 0.10983 0.424644 0.898674
vn 0.697905 0.3288 0.636254
vn 0.697905 0.3288 0.636254
vn 0.10983 0.424644 0.898674
vn -0.014968 0.661594 0.749713
vn -0.00098 0.922851 -0.385157
vn 0.001463 0.99883 -0.048337
vn 0.608449 0.753018 -0.250509
vn 0.353577 0.863128 -0.360545
vn -0.002607 0.876863 -0.480733
vn 0.509062 0.794586 -0.330891
vn 0.048407 -0.713575 -0.698904
vn 0.009207 -0.669003 -0.743203
vn 0.049193 -0.690543 -0.721617
vn 0.009207 -0.669003 -0.743203
vn -0.035866 -0.700879 -0.712378
vn 0.049193 -0.690543 -0.721617
vn -0.151559 -0.021615 0.988212
vn 0.06039 0.690025 0.721262
vn -0.56632 0.109991 0.816813
vn -0.901465 -0.115508 0.417155
vn -0.870843 -0.183029 0.456216
vn -0.767181 0.086835 0.635525
vn -0.870843 -0.183029 0.456216
vn -0.524882 0.212379 0.824253
vn -0.767181 0.086835 0.635525
vn -0.767181 0.086835 0.635525
vn -0.524882 0.212379 0.824253
vn 0.005326 0.228556 0.973516
vn -0.524882 0.212379 0.824253
vn 0.10983 0.424644 0.898674
vn 0.005326 0.228556 0.973516
vn 0.038413 -0.653386 -0.75605
vn 0.006001 -0.653764 -0.756675
vn 0.037139 -0.665692 -0.745302
vn 0.009207 -0.669003 -0.743203
vn 0.037139 -0.665692 -0.745302
vn 0.006001 -0.653764 -0.756675
vn 0.006001 -0.653764 -0.756675
vn -0.036622 -0.665617 -0.745394
vn 0.009207 -0.669003 -0.743203
vn -0.035866 -0.700879 -0.712378
vn 0.009207 -0.669003 -0.743203
vn -0.036622 -0.665617 -0.745394
vn 0.768003 0.105105 0.631763
vn 0.005326 0.228556 0.973516
vn 0.665326 0.105727 0.739029
vn 0.10983 0.424644 0.898674
vn 0.665326 0.105727 0.739029
vn 0.005326 0.228556 0.973516
vn 0.900688 -0.116824 0.418465
vn 0.768003 0.105105 0.631763
vn 0.846772 -0.201648 0.492256
vn 0.665326 0.105727 0.739029
vn 0.846772 -0.201648 0.492256
vn 0.768003 0.105105 0.631763
vn -0.901465 -0.115508 0.417155
vn -0.767181 0.086835 0.635525
vn -0.814599 0.575762 -0.070187
vn -0.767181 0.086835 0.635525
vn -0.520468 0.745006 0.417228
vn -0.631022 0.736499 -0.243682
vn -0.767181 0.086835 0.635525
vn 0.005326 0.228556 0.973516
vn -0.583897 0.479369 0.655187
vn 0.005326 0.228556 0.973516
vn 0.005189 0.944595 0.328196
vn -0.583897 0.479369 0.655187
vn 0.001547 -0.63482 -0.772659
vn 0.006001 -0.653764 -0.756675
vn 0.031215 -0.616666 -0.786606
vn 0.006001 -0.653764 -0.756675
vn 0.038413 -0.653386 -0.75605
vn 0.031215 -0.616666 -0.786606
vn 0.001547 -0.63482 -0.772659
vn -0.028922 -0.614999 -0.787997
vn 0.006001 -0.653764 -0.756675
vn -0.036622 -0.665617 -0.745394
vn 0.006001 -0.653764 -0.756675
vn -0.028922 -0.614999 -0.787997
vn 0.768003 0.105105 0.631763
vn 0.576411 0.516261 0.633424
vn 0.005326 0.228556 0.973516
vn 0.005326 0.228556 0.973516
vn 0.576411 0.516261 0.633424
vn 0.005189 0.944595 0.328196
vn 0.900688 -0.116824 0.418465
vn 0.792866 0.604062 -0.080454
vn 0.768003 0.105105 0.631763
vn 0.768003 0.105105 0.631763
vn 0.608449 0.753018 -0.250509
vn 0.505123 0.768705 0.392356

# Object_1, 102 grouped triangles

usemtl sock
o Object_1
g Object_1

f 8/1/1 1/2/2 9/3/3
f 1/4/4 2/5/5 9/6/6
f 30/7/7 3/8/8 29/9/9
f 3/10/10 10/11/11 29/12/12
f 3/13/13 4/14/14 10/15/15
f 4/16/16 11/17/17 10/18/18
f 11/19/19 4/20/20 12/21/21
f 4/22/22 5/23/23 12/24/24
f 6/25/25 13/26/26 5/27/27
f 5/28/28 13/29/29 12/30/30
f 7/31/31 14/32/32 6/33/33
f 6/34/34 14/35/35 13/36/36
f 15/37/37 33/38/38 31/39/39
f 35/40/40 36/41/41 17/42/42
f 17/43/43 36/44/44 18/45/45
f 36/46/46 37/47/47 18/48/48
f 19/49/49 18/50/50 38/51/51
f 37/52/52 38/53/53 18/54/54
f 38/55/55 39/56/56 19/57/57
f 39/58/58 20/59/59 19/60/60
f 20/61/61 39/62/62 21/63/63
f 39/64/64 40/65/65 21/66/66
f 32/67/67 22/68/68 31/69/69
f 15/70/70 31/71/71 22/72/72
f 16/73/73 17/74/74 23/75/75
f 17/76/76 24/77/77 23/78/78
f 18/79/79 25/80/80 17/81/81
f 17/82/82 25/83/83 24/84/84
f 18/85/85 19/86/86 25/87/87
f 19/88/88 26/89/89 25/90/90
f 27/91/91 26/92/92 20/93/93
f 19/94/94 20/95/95 26/96/96
f 27/97/97 20/98/98 28/99/99
f 20/100/100 21/101/101 28/102/102
f 32/103/103 2/104/104 22/105/105
f 22/106/106 2/107/107 1/108/108
f 30/109/109 24/110/110 3/111/111
f 24/112/112 25/113/113 3/114/114
f 25/115/115 4/116/116 3/117/117
f 26/118/118 5/119/119 25/120/120
f 25/121/121 5/122/122 4/123/123
f 6/124/124 5/125/125 27/126/126
f 26/127/127 27/128/128 5/129/129
f 27/130/130 28/131/131 41/132/132
f 51/133/133 49/134/134 50/135/135
f 49/136/136 48/137/137 50/138/138
f 22/139/139 1/140/140 15/141/141
f 1/142/142 8/143/143 15/144/144
f 16/145/145 34/146/146 17/147/147
f 34/148/148 35/149/149 17/150/150
f 2/151/151 30/152/152 9/153/153
f 30/154/154 29/155/155 9/156/156
f 30/157/157 2/158/158 24/159/159
f 23/160/160 24/161/161 2/162/162
f 34/163/163 16/164/164 33/165/165
f 31/166/166 33/167/167 16/168/168
f 23/169/169 32/170/170 16/171/171
f 32/172/172 31/173/173 16/174/174
f 2/175/175 32/176/176 23/177/177
f 8/178/178 9/179/179 33/180/180
f 33/181/181 9/182/182 34/183/183
f 29/184/184 35/185/185 9/186/186
f 9/187/187 35/188/188 34/189/189
f 36/190/190 35/191/191 10/192/192
f 29/193/193 10/194/194 35/195/195
f 36/196/196 10/197/197 37/198/198
f 10/199/199 11/200/200 37/201/201
f 12/202/202 38/203/203 11/204/204
f 11/205/205 38/206/206 37/207/207
f 13/208/208 39/209/209 12/210/210
f 12/211/211 39/212/212 38/213/213
f 14/214/214 40/215/215 13/216/216
f 13/217/217 40/218/218 39/219/219
f 51/220/220 50/221/221 52/222/222
f 52/223/223 50/224/224 53/225/225
f 27/226/226 41/227/227 6/228/228
f 41/229/229 7/230/230 6/231/231
f 8/232/232 33/233/233 15/234/234
f 43/235/235 28/236/236 42/237/237
f 28/238/238 21/239/239 42/240/240
f 42/241/241 21/242/242 44/243/243
f 21/244/244 40/245/245 44/246/246
f 43/247/247 45/248/248 28/249/249
f 41/250/250 28/251/251 45/252/252
f 45/253/253 46/254/254 41/255/255
f 7/256/256 41/257/257 46/258/258
f 47/259/259 44/260/260 14/261/261
f 40/262/262 14/263/263 44/264/264
f 46/265/265 47/266/266 7/267/267
f 14/268/268 7/269/269 47/270/270
f 43/271/271 42/272/272 49/273/273
f 42/274/274 48/275/275 49/276/276
f 42/277/277 44/278/278 48/279/279
f 44/280/280 50/281/281 48/282/282
f 51/283/283 45/284/284 49/285/285
f 45/286/286 43/287/287 49/288/288
f 51/289/289 52/290/290 45/291/291
f 46/292/292 45/293/293 52/294/294
f 47/295/295 53/296/296 44/297/297
f 44/298/298 53/299/299 50/300/300
f 46/301/301 52/302/302 47/303/303
f 47/304/304 52/305/305 53/306/306
